<svg width="124" height="24" viewBox="0 0 124 24" fill="none" xmlns="http://www.w3.org/2000/svg">
<path d="M5.87424 18.708C7.51707 18.708 8.87806 18.348 9.95623 17.628C11.0344 16.907 11.574 15.859 11.574 14.484C11.4907 12.629 10.1057 11.238 7.41777 10.311L5.97353 9.714C5.65861 9.614 5.43395 9.516 5.30156 9.416C5.24038 9.37477 5.19029 9.3192 5.15566 9.25417C5.12104 9.18914 5.10295 9.11663 5.10298 9.043C5.10298 8.629 5.37678 8.423 5.92439 8.423C6.60439 8.423 7.10987 8.77 7.44185 9.466L11.1507 8.422C10.2551 6.202 8.52904 5.093 5.97353 5.093C4.44705 5.093 3.17733 5.491 2.16536 6.286C1.15339 7.08 0.646899 8.116 0.646899 9.39C0.646899 9.788 0.70507 10.156 0.821411 10.496C0.937753 10.836 1.11227 11.134 1.34395 11.39C1.57663 11.647 1.80028 11.87 2.01592 12.061C2.23155 12.251 2.50535 12.43 2.83833 12.595C3.1693 12.761 3.42205 12.881 3.59656 12.955C3.77107 13.03 4.00776 13.117 4.30564 13.216L4.72888 13.366L6.22327 13.912C6.58734 14.045 6.82503 14.156 6.93235 14.247C6.98479 14.2909 7.02649 14.3461 7.0543 14.4085C7.08211 14.4709 7.09528 14.5388 7.09282 14.607C7.09282 15.038 6.68763 15.254 5.87424 15.254C4.67974 15.254 3.96564 14.724 3.73396 13.664L0 14.509C0.464363 17.309 2.42311 18.709 5.87424 18.709V18.708ZM17.5445 18.708C19.1873 18.708 20.3979 18.078 21.1782 16.82V18.435H26.3052V5.366H21.1782V12.522C21.1782 13.996 20.6717 14.732 19.6597 14.732C18.6307 14.732 18.1162 13.996 18.1162 12.522V5.366H12.9891V13.019C12.9891 16.812 14.5076 18.709 17.5445 18.709V18.708ZM33.6949 18.435V11.28C33.6949 9.805 34.2004 9.068 35.2124 9.068C36.2414 9.068 36.7569 9.805 36.7569 11.28V18.435H41.8829V10.783C41.8829 6.99 40.3655 5.093 37.3286 5.093C35.6858 5.093 34.4742 5.723 33.6949 6.981V5.366H28.5669V18.435H33.6949V18.435ZM49.1232 18.435V11.28C49.1232 9.805 49.6287 9.068 50.6417 9.068C51.6697 9.068 52.1842 9.805 52.1842 11.28V18.435H57.3122V10.783C57.3122 6.99 55.7938 5.093 52.7569 5.093C51.114 5.093 49.9025 5.723 49.1232 6.981V5.366H43.9951V18.435H49.1232V18.435ZM65.1492 24L73.4626 5.366H68.1099L65.5705 12.05L63.3058 5.366H57.7054L63.1564 17.168L60.1205 24H65.1492ZM78.8595 18.708C80.5023 18.708 81.8633 18.348 82.9415 17.628C84.0206 16.907 84.5602 15.859 84.5602 14.484C84.477 12.629 83.0909 11.238 80.403 10.311L78.9588 9.714C78.6439 9.614 78.4202 9.516 78.2868 9.416C78.2256 9.37477 78.1755 9.3192 78.1409 9.25417C78.1063 9.18914 78.0882 9.11663 78.0882 9.043C78.0882 8.629 78.362 8.423 78.9096 8.423C79.5896 8.423 80.0961 8.77 80.4281 9.466L84.137 8.422C83.2403 6.202 81.5153 5.093 78.9598 5.093C77.4333 5.093 76.1636 5.491 75.1516 6.286C74.1386 7.081 73.6331 8.116 73.6331 9.391C73.6331 9.789 73.6913 10.157 73.8067 10.497C73.923 10.837 74.0975 11.135 74.3302 11.391C74.5619 11.648 74.7865 11.871 75.0022 12.062C75.2178 12.252 75.4916 12.431 75.8236 12.596C76.1545 12.762 76.4083 12.882 76.5828 12.956C76.7563 13.031 76.994 13.118 77.2919 13.217L77.7151 13.367L79.2085 13.913C79.5736 14.046 79.8103 14.157 79.9176 14.248C79.9702 14.2918 80.0121 14.347 80.0401 14.4094C80.0681 14.4718 80.0814 14.5397 80.0791 14.608C80.0791 15.039 79.6729 15.255 78.8595 15.255C77.666 15.255 76.9519 14.725 76.7192 13.665L72.9852 14.509C73.4506 17.309 75.4084 18.709 78.8595 18.709V18.708ZM88.6883 4.571C89.601 4.571 90.3061 4.356 90.8046 3.925C91.301 3.495 91.5507 2.948 91.5507 2.285C91.5507 1.607 91.31 1.055 90.8286 0.634C90.3472 0.21 89.6341 0 88.6883 0C87.7426 0 87.0285 0.211 86.5471 0.634C86.0656 1.056 85.8249 1.607 85.8249 2.286C85.8249 2.948 86.0747 3.495 86.5721 3.926C87.0706 4.356 87.7757 4.571 88.6883 4.571V4.571ZM91.2519 18.435V5.366H86.1228V18.435H91.2509H91.2519ZM99.0147 18.708C100.757 18.708 102 18.078 102.748 16.82V18.435H107.875V0.472H102.748V7.006C102 5.731 100.757 5.093 99.0137 5.093C97.2555 5.093 95.7902 5.735 94.6208 7.019C93.4513 8.302 92.8656 9.929 92.8656 11.901C92.8656 13.871 93.4513 15.499 94.6208 16.783C95.7902 18.066 97.2555 18.708 99.0137 18.708H99.0147ZM100.409 14.808C99.6776 14.808 99.0929 14.534 98.6536 13.988C98.2133 13.441 97.9937 12.745 97.9937 11.901C97.9937 11.056 98.2093 10.361 98.6406 9.814C99.0889 9.267 99.6776 8.994 100.408 8.994C101.138 8.994 101.723 9.267 102.163 9.814C102.602 10.36 102.822 11.056 102.822 11.901C102.822 12.745 102.602 13.441 102.163 13.988C101.723 14.534 101.138 14.808 100.408 14.808H100.409ZM117.156 18.708C119.761 18.708 121.794 17.954 123.254 16.448L121.138 13.615C120.093 14.46 118.914 14.882 117.603 14.882C116.608 14.882 115.799 14.658 115.176 14.212C114.554 13.764 114.243 13.333 114.243 12.919H123.876C123.959 12.621 124 12.232 124 11.752C124 9.698 123.324 8.075 121.972 6.882C120.619 5.689 118.89 5.093 116.782 5.093C114.525 5.093 112.742 5.764 111.431 7.106C110.12 8.447 109.464 10.062 109.464 11.95C109.464 13.888 110.156 15.499 111.542 16.783C112.928 18.066 114.799 18.708 117.156 18.708V18.708ZM119.37 10.559H114.243C114.276 9.946 114.542 9.479 115.04 9.155C115.537 8.832 116.127 8.671 116.807 8.671C117.487 8.671 118.077 8.836 118.574 9.168C119.073 9.499 119.337 9.963 119.37 10.559Z" fill="#2B7364"/>
</svg>
